<svg width="64" height="64" viewBox="0 0 64 64" fill="none" xmlns="http://www.w3.org/2000/svg">
<path d="M50.6667 37.3333H24V58.6666H50.6667V37.3333Z" fill="white"/>
<path d="M29.3333 21.3333V37.3333H24V58.6666H8V21.3333H29.3333Z" fill="white"/>
<path d="M45.3333 10.6667V37.3334H29.3333V21.3334H24V10.6667H45.3333Z" fill="white"/>
<path d="M58.6663 21.3333V58.6667H50.6663V37.3333H45.333V16L58.6663 21.3333Z" fill="#F9C41F" fill-opacity="0.2"/>
<path d="M42.6667 45.3333H32V55.9999H42.6667V45.3333Z" fill="#F9C41F"/>
<path d="M53.3337 56.0001V34.6667H48.0003V8.00008H37.3337V2.66675H32.0003V8.00008H21.3337V18.6667H5.33366V56.0001H2.66699V61.3334H61.3337V56.0001H53.3337ZM26.667 13.3334H42.667V21.3334H37.3337V26.6667H42.667V34.6667H32.0003V18.6667H26.667V13.3334ZM21.3337 56.0001H10.667V45.3334H16.0003V40.0001H10.667V34.6667H16.0003V29.3334H10.667V24.0001H26.667V34.6667H21.3337V56.0001ZM48.0003 56.0001H26.667V40.0001H48.0003V56.0001Z" fill="#222222"/>
</svg>
