<svg width="64" height="64" viewBox="0 0 64 64" fill="none" xmlns="http://www.w3.org/2000/svg">
<path d="M58.6668 31.9999C58.6668 39.0724 55.8573 45.8551 50.8563 50.8561C45.8554 55.8571 39.0726 58.6666 32.0002 58.6666H8.00017L9.9735 47.0399C7.62036 43.5916 6.10968 39.639 5.56307 35.5003C5.01646 31.3616 5.44919 27.1523 6.82642 23.2113C8.20365 19.2704 10.4869 15.7078 13.4924 12.8104C16.4979 9.91303 20.1417 7.76174 24.1304 6.52973C28.1192 5.29772 32.3414 5.01941 36.4574 5.71719C40.5733 6.41497 44.468 8.06935 47.8278 10.5472C51.1876 13.025 53.9187 16.257 55.8013 19.9831C57.684 23.7092 58.6655 27.8252 58.6668 31.9999Z" fill="white"/>
<path d="M42.6668 26.6667H40.0002V34.6667H34.6668V29.3334H29.3335V34.6667H24.0002V26.6667H21.3335L32.0002 18.6667L42.6668 26.6667Z" fill="#F9C41F" fill-opacity="0.2"/>
<path d="M32.0002 61.3332H4.8535L7.1735 47.6265C3.70802 42.1213 2.17085 35.6203 2.80375 29.146C3.43665 22.6717 6.20373 16.5914 10.6698 11.8615C15.1358 7.13162 21.0474 4.02047 27.4748 3.01738C33.9021 2.01429 40.4806 3.17617 46.1755 6.32029C51.8704 9.46441 56.3586 14.4124 58.9342 20.3859C61.5098 26.3595 62.0266 33.0198 60.4034 39.3192C58.7802 45.6186 55.1091 51.1997 49.9675 55.1848C44.8258 59.1698 38.5053 61.3327 32.0002 61.3332ZM11.1468 55.9999H32.0002C37.4061 55.9894 42.6501 54.1541 46.8828 50.7913C51.1154 47.4286 54.0889 42.7353 55.3214 37.4718C56.5539 32.2083 55.9733 26.6828 53.6737 21.7905C51.3741 16.8981 47.4901 12.9254 42.6509 10.5158C37.8117 8.10629 32.3007 7.40108 27.0107 8.51443C21.7207 9.62777 16.9615 12.4945 13.504 16.6501C10.0465 20.8058 8.09331 26.007 7.96073 31.4113C7.82814 36.8156 9.52397 42.1063 12.7735 46.4265L11.1468 55.9999Z" fill="#222222"/>
<path d="M45.3332 40H18.6665V45.3333H45.3332V40Z" fill="#F9C41F"/>
</svg>
