<svg width="20" height="20" viewBox="0 0 20 20" fill="none" xmlns="http://www.w3.org/2000/svg">
<path d="M13.0317 0.4725C13.02 0.4675 13.0092 0.46332 12.9975 0.46C12.0508 0.16168 11.0442 0 10 0C5.505 0 1.695 2.98168 0.44 7.07082C0.43582 7.085 0.4325 7.09832 0.42918 7.1125C0.1525 8.0275 0 8.99582 0 10C0 12.5833 0.99332 14.9333 2.60668 16.71C2.63586 16.7592 2.67336 16.8008 2.71918 16.8342C4.545 18.7775 7.12918 20 10 20C15.0683 20 19.2575 16.2075 19.9033 11.3133C19.9133 11.2808 19.9166 11.2491 19.9183 11.2158C19.9675 10.8167 20 10.4125 20 10C20 5.54332 17.0675 1.76 13.0317 0.4725ZM10 19.1667C7.40582 19.1667 5.06418 18.0784 3.395 16.34C3.45918 15.7025 3.61918 13.7617 3.31418 12.7917C3.16332 12.3125 2.8375 11.9858 2.55 11.6983C2.34418 11.4925 2.14918 11.2983 2.04418 11.0725C1.80168 10.5567 1.45 8.535 1.26086 7.2375C2.43582 3.52918 5.90832 0.83332 10 0.83332C10.6925 0.83332 11.3642 0.916641 12.0125 1.06332C11.7658 1.36664 11.57 1.70582 11.4442 1.96582C10.9592 1.7875 10.2784 1.585 9.89918 1.67914C9.27086 1.83582 8.61668 2.64414 7.995 3.50664C7.90168 3.63582 7.77082 3.89832 7.67168 4.11246C7.2025 4.07664 6.73 4.28828 6.34668 4.69914C5.97086 5.10164 5.685 5.72414 5.89418 6.20582C6.0225 6.49832 6.30336 6.66664 6.66668 6.66664C7.04836 6.66664 7.40668 6.45746 7.78668 6.23496C8.12086 6.03996 8.46668 5.83746 8.75586 5.83328C10.2617 5.80078 11.03 6.17996 11.2567 6.52996C11.3184 6.62496 11.3392 6.71828 11.3192 6.81414C11.0167 6.87082 10.1592 6.78332 9.575 6.72414C8.59 6.62582 7.57168 6.52332 6.9775 6.67996C6.24 6.87414 5.81082 7.38246 5.0675 8.52164C4.73418 9.03332 4.82668 10.1008 5.03418 10.5808C5.17668 10.9116 5.68418 11.5058 6.12336 11.6458C6.48168 11.7583 6.94504 11.695 7.43586 11.6275C7.80586 11.575 8.36504 11.4992 8.52668 11.6008C8.90918 11.8458 9.16668 12.8766 9.16668 14.1633C9.16168 14.2325 9.0625 14.4341 9.00418 14.555C8.85168 14.865 8.695 15.1867 8.75918 15.5C9.01668 16.7675 9.975 17.5033 10.7625 17.5033C10.7992 17.5033 10.835 17.5016 10.87 17.4983C12.0217 17.3958 13.9167 15.9125 14.1592 14.6625C14.2184 14.355 14.1909 13.8925 14.1609 13.4033C14.1334 12.9491 14.1025 12.4341 14.1575 12.1691C14.2125 11.9041 14.6484 11.1108 14.9392 10.6341C15.0434 10.4625 15.0117 10.2416 14.8617 10.1075C14.6009 9.87246 14.1884 9.47996 14.0875 9.33996C13.9925 9.20746 13.8342 8.90328 13.6767 8.57496C13.8017 8.61914 13.9 8.65914 13.9475 8.68828C14.4167 8.97828 15.54 10.2308 15.9342 10.6883C16.0317 10.8025 16.1817 10.855 16.3309 10.8258C16.9509 10.7041 17.0309 10.065 17.0826 9.6416C17.1018 9.4891 17.1368 9.2066 17.1818 9.15492C17.5218 9.07742 17.9618 9.76574 18.3134 10.3241C18.5568 10.7108 18.7918 11.0741 19.0568 11.3408C18.405 15.76 14.5975 19.1667 10 19.1667Z" fill="black"/>
</svg>
