<svg width="24" height="24" viewBox="0 0 24 24" fill="none" xmlns="http://www.w3.org/2000/svg">
<path d="M22.2383 2.92969L23.082 2.0625C23.4805 1.64062 23.4805 1.07812 23.082 0.691406L22.8125 0.410156C22.4492 0.046875 21.875 0.09375 21.4883 0.46875L20.6328 1.3125L22.2383 2.92969ZM8.14062 15.7148L10.4258 14.7188L21.3711 3.78516L19.7656 2.20312L8.83203 13.1367L7.77734 15.3398C7.68359 15.5391 7.91797 15.8086 8.14062 15.7148ZM3.875 23.3086H17.6328C19.7422 23.3086 20.9609 22.0898 20.9609 19.6758V7.14844L19.0742 9.03516V19.582C19.0742 20.8008 18.418 21.4219 17.6094 21.4219H3.91016C2.73828 21.4219 2.08203 20.8008 2.08203 19.582V6.28125C2.08203 5.0625 2.73828 4.42969 3.91016 4.42969H14.5859L16.4727 2.54297H3.875C1.4375 2.54297 0.195312 3.76172 0.195312 6.17578V19.6758C0.195312 22.1016 1.4375 23.3086 3.875 23.3086Z" fill="#7A7A7A"/>
</svg>
