<svg width="48" height="60" viewBox="0 0 48 60" fill="none" xmlns="http://www.w3.org/2000/svg">
<path fill-rule="evenodd" clip-rule="evenodd" d="M47 60C47.2652 60 47.5196 59.8946 47.7071 59.7071C47.8946 59.5196 48 59.2652 48 59V11C47.9999 10.7348 47.8946 10.4805 47.707 10.293L37.707 0.293C37.5195 0.105451 37.2652 5.66374e-05 37 0H1C0.734784 0 0.48043 0.105357 0.292893 0.292893C0.105357 0.48043 0 0.734784 0 1V59C0 59.2652 0.105357 59.5196 0.292893 59.7071C0.48043 59.8946 0.734784 60 1 60H47ZM38 3.414L44.586 10H38V3.414ZM2 2H36V11C36 11.2652 36.1054 11.5196 36.2929 11.7071C36.4804 11.8946 36.7348 12 37 12H46V58H2V2ZM16 4H4V14H16V4ZM14 12H6V6H14V12ZM26 4H18V6H26V4ZM28 4H34V6H28V4ZM22 8H18V10H22V8ZM24 8H34V10H24V8ZM26 14V12H18V14H26ZM28 12H34V14H28V12ZM8.00003 32.9998C7.73487 32.9998 7.48056 32.8945 7.29303 32.707L4.29303 29.707C4.10556 29.5195 4.00024 29.2652 4.00024 29C4.00024 28.7349 4.10556 28.4806 4.29303 28.293L16.293 16.293C16.4806 16.1056 16.7349 16.0002 17 16.0002C17.2652 16.0002 17.5195 16.1056 17.707 16.293L29.707 28.293C29.8945 28.4806 29.9998 28.7349 29.9998 29C29.9998 29.2652 29.8945 29.5195 29.707 29.707L26.707 32.707C26.5195 32.8945 26.2652 32.9998 26 32.9998C25.7349 32.9998 25.4806 32.8945 25.293 32.707L25 32.414V39C25 39.2652 24.8947 39.5196 24.7071 39.7071C24.5196 39.8947 24.2652 40 24 40H10C9.73481 40 9.48046 39.8947 9.29292 39.7071C9.10539 39.5196 9.00003 39.2652 9.00003 39V32.414L8.70703 32.707C8.5195 32.8945 8.26519 32.9998 8.00003 32.9998ZM15 34V38H19V34C19 33.4696 18.7893 32.9609 18.4142 32.5858C18.0392 32.2107 17.5305 32 17 32C16.4696 32 15.9609 32.2107 15.5858 32.5858C15.2107 32.9609 15 33.4696 15 34ZM21 38H23V30.414L17 24.414L11 30.414V38H13V34C13 32.9392 13.4215 31.9217 14.1716 31.1716C14.9218 30.4215 15.9392 30 17 30C18.0609 30 19.0783 30.4215 19.8285 31.1716C20.5786 31.9217 21 32.9392 21 34V38ZM27.586 29L17 18.414L6.41403 29L8.00003 30.586L16.293 22.293C16.4806 22.1056 16.7349 22.0002 17 22.0002C17.2652 22.0002 17.5195 22.1056 17.707 22.293L26 30.586L27.586 29ZM30.0339 19.7431C29.9879 19.9158 29.9891 20.0978 30.0372 20.27C30.0854 20.4422 30.1789 20.5983 30.3079 20.7221L32.8929 23.2001L32.0279 26.7651C31.9818 26.9507 31.9899 27.1456 32.0512 27.3268C32.1125 27.508 32.2244 27.6678 32.3738 27.7872C32.5231 27.9067 32.7036 27.9808 32.8938 28.0008C33.084 28.0208 33.276 27.9859 33.4469 27.9001L36.9999 26.1181L40.5529 27.9001C40.7235 27.9854 40.915 28.0202 41.1047 28.0003C41.2944 27.9804 41.4745 27.9066 41.6236 27.7877C41.7728 27.6688 41.8849 27.5098 41.9466 27.3293C42.0083 27.1488 42.0171 26.9544 41.972 26.7691L41.1069 23.2001L43.692 20.7231C43.821 20.5994 43.9145 20.4434 43.9628 20.2713C44.0111 20.0993 44.0124 19.9174 43.9666 19.7446C43.9207 19.5719 43.8294 19.4146 43.7022 19.2891C43.5749 19.1636 43.4163 19.0745 43.243 19.0311L39.6889 18.1431L37.8999 14.5531C37.8075 14.3981 37.6765 14.2698 37.5196 14.1806C37.3627 14.0915 37.1854 14.0447 37.0049 14.0447C36.8245 14.0447 36.6472 14.0915 36.4903 14.1806C36.3334 14.2698 36.2023 14.3981 36.1099 14.5531L34.3159 18.1421L30.7619 19.0301C30.5878 19.0728 30.4284 19.1614 30.3003 19.2869C30.1722 19.4123 30.0802 19.5699 30.0339 19.7431ZM35.2429 19.9701C35.3829 19.9351 35.5137 19.8702 35.6262 19.78C35.7388 19.6897 35.8304 19.5761 35.8949 19.4471L36.9999 17.2361L38.0999 19.4471C38.1645 19.5761 38.2561 19.6897 38.3687 19.78C38.4812 19.8702 38.612 19.9351 38.7519 19.9701L40.9999 20.5311L39.3079 22.1531C39.1815 22.2742 39.089 22.4265 39.0399 22.5946C38.9907 22.7628 38.9866 22.9409 39.0279 23.1111L39.5209 25.1421L37.4469 24.1051C37.3081 24.0357 37.1551 23.9996 36.9999 23.9996C36.8448 23.9996 36.6917 24.0357 36.5529 24.1051L34.4789 25.1421L34.9719 23.1111C35.0133 22.9409 35.0091 22.7628 34.96 22.5946C34.9109 22.4265 34.8184 22.2742 34.6919 22.1531L32.9999 20.5311L35.2429 19.9701ZM31.5554 32.3482C32.871 31.4692 34.4178 31 36 31C38.121 31.0024 40.1545 31.846 41.6542 33.3458C43.154 34.8456 43.9976 36.879 44 39C44 40.5822 43.5308 42.129 42.6518 43.4446C41.7727 44.7602 40.5233 45.7855 39.0615 46.391C37.5997 46.9965 35.9911 47.155 34.4393 46.8463C32.8874 46.5376 31.462 45.7757 30.3432 44.6569C29.2243 43.538 28.4624 42.1126 28.1537 40.5607C27.845 39.0089 28.0035 37.4003 28.609 35.9385C29.2145 34.4767 30.2398 33.2273 31.5554 32.3482ZM32.6666 43.9888C33.6533 44.6481 34.8133 45 36 45C37.5908 44.9984 39.116 44.3658 40.2409 43.2409C41.3658 42.116 41.9984 40.5908 42 39C42 37.8133 41.6481 36.6533 40.9888 35.6666C40.3295 34.6799 39.3925 33.9108 38.2961 33.4567C37.1997 33.0026 35.9933 32.8838 34.8295 33.1153C33.6656 33.3468 32.5965 33.9182 31.7574 34.7574C30.9182 35.5965 30.3468 36.6656 30.1153 37.8295C29.8838 38.9933 30.0026 40.1997 30.4567 41.2961C30.9109 42.3925 31.6799 43.3295 32.6666 43.9888ZM35 40.586L32.707 38.293L31.293 39.707L34.293 42.707C34.4805 42.8944 34.7348 42.9998 35 42.9998C35.2651 42.9998 35.5194 42.8944 35.707 42.707L40.707 37.707L39.293 36.293L35 40.586ZM14 49H4V51H14V49ZM4 53H10V55H4V53ZM44 51V49H32V51H44ZM36 53H44V55H36V53ZM30 49H16V51H30V49ZM12 53H34V55H12V53ZM27 45H4V47H27V45Z" fill="url(#paint0_linear_1:7369)"/>
<defs>
<linearGradient id="paint0_linear_1:7369" x1="0.600001" y1="60" x2="-0.337418" y2="0.00527217" gradientUnits="userSpaceOnUse">
<stop stop-color="#FC501A"/>
<stop offset="1" stop-color="#F9C31F"/>
</linearGradient>
</defs>
</svg>
