<svg width="60" height="60" viewBox="0 0 60 60" fill="none" xmlns="http://www.w3.org/2000/svg">
<path fill-rule="evenodd" clip-rule="evenodd" d="M58 0H30C29.4696 0 28.9609 0.210714 28.5858 0.585786C28.2107 0.960859 28 1.46957 28 2V22C28 22.5304 28.2107 23.0391 28.5858 23.4142C28.9609 23.7893 29.4696 24 30 24H58C58.5304 24 59.0391 23.7893 59.4142 23.4142C59.7893 23.0391 60 22.5304 60 22V2C60 1.46957 59.7893 0.960859 59.4142 0.585786C59.0391 0.210714 58.5304 0 58 0ZM58 19H48V18H58V19ZM30 18H40V19H30V18ZM42 18H46V22H42V18ZM58 16H55.142C55.3212 15.3126 55.6805 14.6855 56.1829 14.1833C56.6853 13.681 57.3125 13.3219 58 13.143V16ZM58 11.091C56.774 11.3002 55.6433 11.8848 54.7638 12.7641C53.8843 13.6434 53.2994 14.7741 53.09 16H34.91C34.7005 14.774 34.1156 13.6433 33.2362 12.7638C32.3567 11.8844 31.226 11.2995 30 11.09V6.91C31.226 6.70047 32.3567 6.11563 33.2362 5.23617C34.1156 4.3567 34.7005 3.22597 34.91 2H53.09C53.2994 3.22603 53.8842 4.35684 54.7637 5.23632C55.6432 6.11581 56.774 6.70061 58 6.91V11.091ZM58 4.858C57.3128 4.6783 56.6858 4.31883 56.1835 3.81653C55.6812 3.31424 55.3217 2.68725 55.142 2H58V4.858ZM32.858 2C32.6783 2.68725 32.3188 3.31424 31.8165 3.81653C31.3142 4.31883 30.6872 4.6783 30 4.858V2H32.858ZM30 13.126C30.689 13.3076 31.3172 13.6696 31.8198 14.1748C32.3223 14.68 32.681 15.31 32.859 16H30V13.126ZM30 21H40V22H30V21ZM58 22H48V21H58V22ZM44 4C43.0111 4 42.0444 4.29324 41.2222 4.84265C40.3999 5.39206 39.759 6.17295 39.3806 7.08658C39.0022 8.00021 38.9031 9.00554 39.0961 9.97545C39.289 10.9454 39.7652 11.8363 40.4645 12.5355C41.1637 13.2348 42.0546 13.711 43.0246 13.9039C43.9945 14.0968 44.9998 13.9978 45.9134 13.6194C46.8271 13.241 47.608 12.6001 48.1574 11.7778C48.7068 10.9556 49 9.9889 49 9C48.9984 7.6744 48.4711 6.40356 47.5338 5.46622C46.5965 4.52888 45.3256 4.00159 44 4ZM44 12C43.4067 12 42.8266 11.824 42.3333 11.4944C41.8399 11.1648 41.4554 10.6962 41.2284 10.148C41.0013 9.59987 40.9419 8.99667 41.0576 8.41473C41.1734 7.83278 41.4591 7.29823 41.8787 6.87868C42.2982 6.45912 42.8328 6.1734 43.4147 6.05764C43.9967 5.94189 44.5999 6.0013 45.1481 6.22836C45.6962 6.45542 46.1648 6.83994 46.4944 7.33329C46.8241 7.82663 47 8.40665 47 9C47 9.79565 46.6839 10.5587 46.1213 11.1213C45.5587 11.6839 44.7957 12 44 12ZM3 38H29C29.7956 38 30.5587 38.3161 31.1213 38.8787C31.6839 39.4413 32 40.2043 32 41V57C32 57.7957 31.6839 58.5587 31.1213 59.1213C30.5587 59.6839 29.7956 60 29 60H3C2.20435 60 1.44129 59.6839 0.87868 59.1213C0.316071 58.5587 0 57.7957 0 57V41C0 40.2043 0.316071 39.4413 0.87868 38.8787C1.44129 38.3161 2.20435 38 3 38ZM29 40H3C2.73478 40 2.48043 40.1054 2.29289 40.2929C2.10536 40.4804 2 40.7348 2 41V50H30V41C30 40.7348 29.8946 40.4804 29.7071 40.2929C29.5196 40.1054 29.2652 40 29 40ZM30 54V52H2V54H30ZM3 58H29C29.2652 58 29.5196 57.8946 29.7071 57.7071C29.8946 57.5196 30 57.2652 30 57V56H2V57C2 57.2652 2.10536 57.5196 2.29289 57.7071C2.48043 57.8946 2.73478 58 3 58ZM5 48H11C11.2652 48 11.5196 47.8946 11.7071 47.7071C11.8946 47.5196 12 47.2652 12 47V43C12 42.7348 11.8946 42.4804 11.7071 42.2929C11.5196 42.1054 11.2652 42 11 42H5C4.73478 42 4.48043 42.1054 4.29289 42.2929C4.10536 42.4804 4 42.7348 4 43V47C4 47.2652 4.10536 47.5196 4.29289 47.7071C4.48043 47.8946 4.73478 48 5 48ZM6 44H10V46H6V44ZM28 43H26V47H28V43ZM22 43H24V47H22V43ZM20 43H18V47H20V43ZM45.707 28.293C45.5195 28.1056 45.2652 28.0002 45 28.0002C44.7348 28.0002 44.4805 28.1056 44.293 28.293L40.293 32.293C40.1532 32.4329 40.058 32.611 40.0194 32.805C39.9809 32.999 40.0007 33.2 40.0763 33.3827C40.152 33.5654 40.2801 33.7215 40.4445 33.8314C40.609 33.9413 40.8023 34 41 34H42V48H37C36.7348 48 36.4804 48.1054 36.2929 48.2929C36.1054 48.4805 36 48.7348 36 49V53C36 53.2652 36.1054 53.5196 36.2929 53.7071C36.4804 53.8947 36.7348 54 37 54H47C47.2652 54 47.5196 53.8947 47.7071 53.7071C47.8946 53.5196 48 53.2652 48 53V34H49C49.1978 34 49.3911 33.9413 49.5555 33.8314C49.7199 33.7215 49.848 33.5654 49.9237 33.3827C49.9994 33.2 50.0192 32.999 49.9806 32.805C49.942 32.611 49.8468 32.4329 49.707 32.293L45.707 28.293ZM46 33V52H38V50H43C43.2652 50 43.5196 49.8947 43.7071 49.7071C43.8946 49.5196 44 49.2652 44 49V33C44.0001 32.7963 43.9381 32.5975 43.8221 32.43C43.7061 32.2626 43.5417 32.1345 43.351 32.063L45 30.414L46.649 32.063C46.4583 32.1345 46.2939 32.2626 46.1779 32.43C46.062 32.5975 45.9999 32.7963 46 33ZM15 33.9998C14.7349 33.9998 14.4806 33.8945 14.293 33.707L10.293 29.707C10.1532 29.5671 10.058 29.389 10.0194 29.195C9.98088 29.0011 10.0007 28.8 10.0764 28.6173C10.152 28.4346 10.2802 28.2785 10.4446 28.1686C10.609 28.0587 10.8023 28 11 28H12V9C12 8.73478 12.1054 8.48043 12.2929 8.29289C12.4805 8.10536 12.7348 8 13 8H23C23.2653 8 23.5196 8.10536 23.7071 8.29289C23.8947 8.48043 24 8.73478 24 9V13C24 13.2652 23.8947 13.5196 23.7071 13.7071C23.5196 13.8946 23.2653 14 23 14H18V28H19C19.1978 28 19.3911 28.0587 19.5555 28.1686C19.7199 28.2785 19.848 28.4346 19.9237 28.6173C19.9994 28.8 20.0192 29.0011 19.9806 29.195C19.9421 29.389 19.8468 29.5671 19.707 29.707L15.707 33.707C15.5195 33.8945 15.2652 33.9998 15 33.9998ZM14 10V29C14.0002 29.2037 13.9381 29.4026 13.8221 29.57C13.7061 29.7375 13.5418 29.8655 13.351 29.937L15 31.586L16.649 29.937C16.4583 29.8655 16.2939 29.7375 16.178 29.57C16.062 29.4026 15.9999 29.2037 16 29V13C16 12.7348 16.1054 12.4804 16.2929 12.2929C16.4805 12.1054 16.7348 12 17 12H22V10H14Z" fill="url(#paint0_linear_1:7413)"/>
<defs>
<linearGradient id="paint0_linear_1:7413" x1="0.750001" y1="60" x2="1.78815e-08" y2="-2.23519e-10" gradientUnits="userSpaceOnUse">
<stop stop-color="#FC501A"/>
<stop offset="1" stop-color="#F9C31F"/>
</linearGradient>
</defs>
</svg>
