<svg width="60" height="60" viewBox="0 0 60 60" fill="none" xmlns="http://www.w3.org/2000/svg">
<path fill-rule="evenodd" clip-rule="evenodd" d="M59.707 8.293L51.707 0.293C51.5195 0.105451 51.2652 5.66374e-05 51 0H21C20.2044 0 19.4413 0.316071 18.8787 0.87868C18.3161 1.44129 18 2.20435 18 3V8.051C15.2689 8.3026 12.73 9.56448 10.8804 11.5896C9.0308 13.6148 8.00363 16.2573 8 19V21C7.20435 21 6.44129 21.3161 5.87868 21.8787C5.31607 22.4413 5 23.2044 5 24C5 24.7956 5.31607 25.5587 5.87868 26.1213C6.44129 26.6839 7.20435 27 8 27C8.00924 27 8.01818 26.9982 8.02715 26.9965L8.02717 26.9964L8.02722 26.9964C8.03473 26.9949 8.04226 26.9935 8.05 26.993C8.22006 28.8414 8.85472 30.6168 9.89499 32.1541C10.9353 33.6915 12.3474 34.9408 14 35.786V37H13C9.55219 37 6.24558 38.3696 3.80761 40.8076C1.36964 43.2456 0 46.5522 0 50V59C0 59.2652 0.105357 59.5196 0.292893 59.7071C0.48043 59.8946 0.734784 60 1 60H37C37.2652 60 37.5196 59.8946 37.7071 59.7071C37.8946 59.5196 38 59.2652 38 59V56H57C57.7957 56 58.5587 55.6839 59.1213 55.1213C59.6839 54.5587 60 53.7957 60 53V9C59.9999 8.73481 59.8946 8.48049 59.707 8.293ZM52 3.414L56.586 8H53C52.7348 8 52.4804 7.89464 52.2929 7.70711C52.1054 7.51957 52 7.26522 52 7V3.414ZM19 10C21.3861 10.0026 23.6738 10.9517 25.361 12.639C27.0483 14.3262 27.9974 16.6139 28 19V21.606C26.6404 21.0674 25.5452 20.0188 24.948 18.684C24.8817 18.485 24.7545 18.3118 24.5844 18.1891C24.4142 18.0663 24.2098 18.0002 24 18C23.3734 18.0136 22.7575 18.1649 22.1959 18.4434C21.6344 18.7218 21.1411 19.1204 20.751 19.611C19.9458 18.7771 19.3316 17.778 18.951 16.683C18.8712 16.4444 18.7043 16.2447 18.4838 16.1237C18.2632 16.0026 18.0051 15.9692 17.761 16.03C14.991 16.722 11.88 19.107 10.003 20.73V19C10.0056 16.6144 10.9543 14.3272 12.6409 12.64C14.3275 10.9529 16.6144 10.0034 19 10ZM30 23C30.2652 23 30.5196 23.1054 30.7071 23.2929C30.8946 23.4804 31 23.7348 31 24C31 24.2652 30.8946 24.5196 30.7071 24.7071C30.5196 24.8946 30.2652 25 30 25V23ZM7 24C7 23.7348 7.10536 23.4804 7.29289 23.2929C7.48043 23.1054 7.73478 23 8 23V25C7.73478 25 7.48043 24.8946 7.29289 24.7071C7.10536 24.5196 7 24.2652 7 24ZM10 26V23.425C10.995 22.48 14.42 19.359 17.424 18.225C18.0483 19.7524 19.1447 21.0402 20.553 21.9C20.7896 22.0163 21.0624 22.0351 21.3128 21.9525C21.5631 21.8698 21.7711 21.6923 21.892 21.458C22.2272 20.8434 22.7645 20.3636 23.413 20.1C24.4359 21.8403 26.0717 23.1359 28 23.733V26C28 28.3869 27.0518 30.6761 25.364 32.364C23.6761 34.0518 21.3869 35 19 35C16.6131 35 14.3239 34.0518 12.636 32.364C10.9482 30.6761 10 28.3869 10 26ZM24.379 39L24.816 41.184L21.26 41.776L23.481 39H24.379ZM18.414 46L17.414 45L18.414 44H19.586L20.586 45L19.586 46H18.414ZM19 37C20.0149 36.9975 21.0245 36.8541 22 36.574V37.648L19 41.4L16 37.649V36.574C16.9755 36.8541 17.9851 36.9975 19 37ZM14.519 39L16.74 41.776L13.184 41.184L13.621 39H14.519ZM2 50C1.99411 47.619 2.76667 45.3013 4.2 43.4C5.22846 42.0373 6.55629 40.9291 8.081 40.161C9.1729 39.6137 10.3495 39.255 11.561 39.1L11.02 41.8C10.9938 41.9314 10.9942 42.0667 11.0213 42.1979C11.0484 42.3291 11.1016 42.4535 11.1777 42.5638C11.2538 42.674 11.3513 42.7679 11.4644 42.8397C11.5775 42.9115 11.7039 42.9599 11.836 42.982L15.919 43.663L15.293 44.289C15.1055 44.4765 15.0002 44.7308 15.0002 44.996C15.0002 45.2612 15.1055 45.5155 15.293 45.703L16.915 47.325L15.02 56.8C15.0066 56.8658 14.9999 56.9328 15 57V58H9V48H7V58H2V50ZM17 58V57.1L18.82 48H19.18L21 57.1V58H17ZM36 58H31V48H29V58H23V57C23.0001 56.9328 22.9934 56.8658 22.98 56.8L21.085 47.325L22.707 45.703C22.8945 45.5155 22.9998 45.2612 22.9998 44.996C22.9998 44.7308 22.8945 44.4765 22.707 44.289L22.081 43.663L26.164 42.982C26.2961 42.9599 26.4225 42.9115 26.5356 42.8397C26.6487 42.7679 26.7462 42.674 26.8223 42.5638C26.8984 42.4535 26.9516 42.3291 26.9787 42.1979C27.0058 42.0667 27.0062 41.9314 26.98 41.8L26.439 39.1C27.8891 39.2952 29.2862 39.7756 30.5496 40.5137C31.8131 41.2517 32.9178 42.2327 33.8 43.4C35.2334 45.3013 36.006 47.619 36 50V58ZM57 54H38V50C38.0073 47.186 37.0942 44.4468 35.4 42.2C34.1851 40.5897 32.6141 39.2824 30.8098 38.3803C29.0056 37.4782 27.0172 37.0058 25 37H24V35.786C25.6526 34.9408 27.0647 33.6915 28.105 32.1541C29.1453 30.6168 29.7799 28.8414 29.95 26.993C29.9585 26.993 29.9667 26.9947 29.975 26.9965L29.975 26.9965C29.9832 26.9982 29.9915 27 30 27C30.7956 27 31.5587 26.6839 32.1213 26.1213C32.6839 25.5587 33 24.7956 33 24C33 23.2044 32.6839 22.4413 32.1213 21.8787C31.5587 21.3161 30.7956 21 30 21V19C29.9964 16.2573 28.9692 13.6148 27.1196 11.5896C25.27 9.56448 22.7311 8.3026 20 8.051V3C20 2.73478 20.1054 2.48043 20.2929 2.29289C20.4804 2.10536 20.7348 2 21 2H50V7C50 7.79565 50.3161 8.55871 50.8787 9.12132C51.4413 9.68393 52.2043 10 53 10H58V53C58 53.2652 57.8946 53.5196 57.7071 53.7071C57.5196 53.8946 57.2652 54 57 54ZM13 23H15V25H13V23ZM21 28H23C23 29.0609 22.5786 30.0783 21.8284 30.8284C21.0783 31.5786 20.0609 32 19 32C17.9391 32 16.9217 31.5786 16.1716 30.8284C15.4214 30.0783 15 29.0609 15 28H17C17 28.5304 17.2107 29.0391 17.5858 29.4142C17.9609 29.7893 18.4696 30 19 30C19.5304 30 20.0391 29.7893 20.4142 29.4142C20.7893 29.0391 21 28.5304 21 28ZM47 25H45C44.7348 25 44.4804 25.1054 44.2929 25.2929C44.1054 25.4804 44 25.7348 44 26C44 26.2652 44.1054 26.5196 44.2929 26.7071C44.4804 26.8946 44.7348 27 45 27H47C47.7957 27 48.5587 27.3161 49.1213 27.8787C49.6839 28.4413 50 29.2044 50 30C50 30.7956 49.6839 31.5587 49.1213 32.1213C48.5587 32.6839 47.7957 33 47 33V34H45V33C44.2043 33 43.4413 32.6839 42.8787 32.1213C42.3161 31.5587 42 30.7956 42 30H44C44 30.2652 44.1054 30.5196 44.2929 30.7071C44.4804 30.8946 44.7348 31 45 31H47C47.2652 31 47.5196 30.8946 47.7071 30.7071C47.8946 30.5196 48 30.2652 48 30C48 29.7348 47.8946 29.4804 47.7071 29.2929C47.5196 29.1054 47.2652 29 47 29H45C44.2043 29 43.4413 28.6839 42.8787 28.1213C42.3161 27.5587 42 26.7956 42 26C42 25.2044 42.3161 24.4413 42.8787 23.8787C43.4413 23.3161 44.2043 23 45 23V22H47V23C47.7957 23 48.5587 23.3161 49.1213 23.8787C49.6839 24.4413 50 25.2044 50 26H48C48 25.7348 47.8946 25.4804 47.7071 25.2929C47.5196 25.1054 47.2652 25 47 25ZM35 10H45V12H35V10ZM37 6H35V8H37V6ZM39 6H45V8H39V6ZM39.9138 20.0622C41.6601 18.7234 43.7996 17.9985 46 18C48.2005 17.9985 50.3399 18.7234 52.0862 20.0622C53.8326 21.401 55.0881 23.2788 55.658 25.4042C56.2279 27.5295 56.0803 29.7836 55.238 31.8165C54.3958 33.8494 52.906 35.5474 51 36.647V44C51 44.2652 50.8947 44.5196 50.7071 44.7071C50.5196 44.8946 50.2652 45 50 45C49.7836 45.0005 49.5729 44.9303 49.4 44.8L46 42.25L42.6 44.8C42.4514 44.9114 42.2748 44.9793 42.0898 44.9959C41.9049 45.0126 41.7189 44.9775 41.5528 44.8944C41.3867 44.8114 41.247 44.6837 41.1494 44.5257C41.0517 44.3677 41 44.1857 41 44V36.647C39.094 35.5474 37.6042 33.8494 36.762 31.8165C35.9198 29.7836 35.7721 27.5295 36.342 25.4042C36.9119 23.2788 38.1675 21.401 39.9138 20.0622ZM46.6 40.2L49 42V37.539C47.0472 38.1537 44.9528 38.1537 43 37.539V42L45.4 40.2C45.5731 40.0702 45.7836 40 46 40C46.2164 40 46.4269 40.0702 46.6 40.2ZM23 23H25V25H23V23ZM41.5555 34.6517C42.871 35.5308 44.4178 36 46 36C48.121 35.9976 50.1545 35.154 51.6542 33.6542C53.154 32.1544 53.9976 30.121 54 28C54 26.4177 53.5308 24.871 52.6518 23.5554C51.7727 22.2398 50.5233 21.2145 49.0615 20.609C47.5997 20.0035 45.9911 19.845 44.4393 20.1537C42.8874 20.4624 41.462 21.2243 40.3432 22.3431C39.2243 23.462 38.4624 24.8874 38.1537 26.4393C37.845 27.9911 38.0035 29.5997 38.609 31.0615C39.2145 32.5233 40.2399 33.7727 41.5555 34.6517Z" fill="url(#paint0_linear_1:7396)"/>
<defs>
<linearGradient id="paint0_linear_1:7396" x1="0.750001" y1="60" x2="1.78815e-08" y2="-2.23519e-10" gradientUnits="userSpaceOnUse">
<stop stop-color="#FC501A"/>
<stop offset="1" stop-color="#F9C31F"/>
</linearGradient>
</defs>
</svg>
