<svg width="20" height="20" viewBox="0 0 20 20" fill="none" xmlns="http://www.w3.org/2000/svg">
<path fill-rule="evenodd" clip-rule="evenodd" d="M8.3335 1.58325C4.60569 1.58325 1.5835 4.60544 1.5835 8.33325C1.5835 12.0611 4.60569 15.0833 8.3335 15.0833C10.0174 15.0833 11.5574 14.4666 12.7398 13.4467L17.5633 18.2701C17.7585 18.4654 18.0751 18.4654 18.2704 18.2701C18.4656 18.0749 18.4656 17.7583 18.2704 17.563L13.4469 12.7396C14.4668 11.5572 15.0835 10.0172 15.0835 8.33325C15.0835 4.60544 12.0613 1.58325 8.3335 1.58325ZM2.5835 8.33325C2.5835 5.15773 5.15797 2.58325 8.3335 2.58325C11.509 2.58325 14.0835 5.15773 14.0835 8.33325C14.0835 11.5088 11.509 14.0833 8.3335 14.0833C5.15797 14.0833 2.5835 11.5088 2.5835 8.33325Z" fill="#FEFFFF"/>
</svg>
