<svg width="16" height="16" viewBox="0 0 16 16" fill="none" xmlns="http://www.w3.org/2000/svg">
<path d="M16 8C16 12.4183 12.4183 16 8 16C5.67086 16 3.5742 15.0047 2.11233 13.4162C1.72833 12.9992 1.38841 12.5411 1.0991 12.0496C0.400653 10.8617 0 9.47755 0 8C0 3.58171 3.58171 0 8 0C9.47788 0 10.862 0.400653 12.0496 1.09943C12.5411 1.38841 12.9989 1.72833 13.4158 2.11265C15.0044 3.57388 16 5.67086 16 8Z" fill="#F0CD00"/>
<path d="M16.0001 7.99958C16.0001 12.3183 12.5784 15.8376 8.29791 15.994C4.01742 15.8376 0.595703 12.3183 0.595703 7.99958C0.595703 3.68088 4.01742 0.161535 8.29791 0.00512695C12.5784 0.161535 16.0001 3.68088 16.0001 7.99958Z" fill="#FFDE50"/>
<path d="M13.4163 2.1121L2.11283 13.4156C1.72883 12.9986 1.38892 12.5405 1.09961 12.0491L12.0501 1.09888C12.5416 1.38786 12.9994 1.72777 13.4163 2.1121Z" fill="#FFEA94"/>
<path d="M15.4485 5.07536L5.07527 15.4486C4.34091 15.1599 3.65944 14.7658 3.0498 14.2848L14.2851 3.04956C14.766 3.65919 15.1602 4.34066 15.4485 5.07536Z" fill="#FFEA94"/>
<path d="M14.2162 8.00043C14.2162 11.4336 11.4328 14.2169 7.99969 14.2169C6.80394 14.2169 5.6872 13.8793 4.73928 13.2941C4.32622 13.0394 3.94549 12.7374 3.60394 12.3959C3.35284 12.1451 3.12296 11.8724 2.91757 11.5815C2.6348 11.1808 2.39806 10.7452 2.21553 10.2825C1.94516 9.59847 1.793 8.85463 1.78386 8.07683C1.7832 8.05136 1.7832 8.02589 1.7832 8.00043C1.7832 4.56728 4.56622 1.78394 7.99969 1.78394C8.02516 1.78394 8.05096 1.78394 8.07643 1.78459C8.85422 1.79373 9.59773 1.94622 10.2818 2.21626C10.7445 2.39912 11.1801 2.63553 11.5808 2.9183C11.8717 3.12402 12.144 3.35357 12.3951 3.60467C12.7367 3.94589 13.0387 4.32696 13.2934 4.74002C13.8785 5.68794 14.2162 6.80467 14.2162 8.00043Z" fill="#FAA300"/>
<path d="M12.3951 3.60467L3.60394 12.3959C3.35284 12.1451 3.12296 11.8724 2.91757 11.5815C2.63479 11.1808 2.39806 10.7452 2.21553 10.2825C1.94516 9.59847 1.793 8.85463 1.78386 8.07683C1.7832 8.05136 1.7832 8.0259 1.7832 8.00043C1.7832 4.56728 4.56622 1.78394 7.99969 1.78394C8.02516 1.78394 8.05096 1.78394 8.07643 1.78459C8.85422 1.79373 9.59773 1.94622 10.2818 2.21626C10.7445 2.39912 11.1801 2.63553 11.5808 2.9183C11.8717 3.12402 12.144 3.35357 12.3951 3.60467Z" fill="#FFBD00"/>
<path d="M14.2159 8.00043C14.2159 11.4336 11.4326 14.2169 7.99946 14.2169C7.88158 14.2169 7.76468 14.2136 7.64844 14.2071C10.9183 14.0252 13.5136 11.3157 13.5136 8.00043C13.5136 4.68516 10.9183 1.97561 7.64844 1.79373C7.76468 1.7872 7.88158 1.78394 7.99946 1.78394C11.4326 1.78394 14.2159 4.56728 14.2159 8.00043Z" fill="#F68E00"/>
<path d="M7.79502 7.5216V5.00402C8.18738 5.22047 8.45383 5.63824 8.45383 6.11716C8.45383 6.45499 8.72769 6.72885 9.06552 6.72885C9.40335 6.72885 9.67721 6.45499 9.67721 6.11716C9.67721 4.95304 8.87535 3.97286 7.79502 3.69943V3.20153C7.79502 2.86371 7.52116 2.58984 7.18333 2.58984C6.8455 2.58984 6.57164 2.86371 6.57164 3.20153V3.69939C5.49131 3.97286 4.68945 4.95301 4.68945 6.11713C4.68945 6.81221 4.8936 7.35425 5.31355 7.7742C5.61974 8.08039 6.02647 8.30697 6.57164 8.47308V10.9946C6.17928 10.7782 5.91283 10.3604 5.91283 9.8815C5.91283 9.54367 5.63897 9.26981 5.30114 9.26981C4.96331 9.26981 4.68945 9.54367 4.68945 9.8815C4.68945 11.0456 5.49131 12.0258 6.57164 12.2992V12.7971C6.57164 13.1349 6.8455 13.4088 7.18333 13.4088C7.52116 13.4088 7.79502 13.1349 7.79502 12.7971V12.2992C8.87535 12.0258 9.67721 11.0456 9.67721 9.8815C9.67721 9.19605 9.46431 8.63562 9.04446 8.21577C8.73931 7.91059 8.32753 7.68183 7.79502 7.5216ZM6.17863 6.90916C6.05487 6.78544 5.91287 6.58357 5.91287 6.11713C5.91287 5.6382 6.17931 5.22047 6.57167 5.00398V7.1694C6.40668 7.09299 6.27607 7.00663 6.17863 6.90916ZM7.79502 10.9946V8.8225C8.32664 9.07007 8.45383 9.42426 8.45383 9.8815C8.45383 10.3604 8.18738 10.7782 7.79502 10.9946Z" fill="#F68E00"/>
<path d="M8.61143 7.5216V5.00402C9.00379 5.22047 9.27024 5.63824 9.27024 6.11716C9.27024 6.45499 9.5441 6.72885 9.88193 6.72885C10.2198 6.72885 10.4936 6.45499 10.4936 6.11716C10.4936 4.95304 9.69176 3.97286 8.61143 3.69943V3.20153C8.61143 2.86371 8.33757 2.58984 7.99974 2.58984C7.66191 2.58984 7.38805 2.86371 7.38805 3.20153V3.69939C6.30772 3.97286 5.50586 4.95301 5.50586 6.11713C5.50586 6.81221 5.71001 7.35425 6.12996 7.7742C6.43615 8.08039 6.84287 8.30697 7.38805 8.47308V10.9946C6.99569 10.7782 6.72924 10.3604 6.72924 9.8815C6.72924 9.54367 6.45538 9.26981 6.11755 9.26981C5.77972 9.26981 5.50586 9.54367 5.50586 9.8815C5.50586 11.0456 6.30772 12.0258 7.38805 12.2992V12.7971C7.38805 13.1349 7.66191 13.4088 7.99974 13.4088C8.33757 13.4088 8.61143 13.1349 8.61143 12.7971V12.2992C9.69176 12.0258 10.4936 11.0456 10.4936 9.8815C10.4936 9.19605 10.2807 8.63562 9.86087 8.21577C9.55573 7.91059 9.14391 7.68183 8.61143 7.5216ZM6.99501 6.90916C6.87125 6.78544 6.72924 6.58357 6.72924 6.11713C6.72924 5.6382 6.99569 5.22047 7.38805 5.00398V7.1694C7.22309 7.09299 7.09247 7.00663 6.99501 6.90916ZM8.61143 10.9946V8.8225C9.14306 9.07007 9.27024 9.42426 9.27024 9.8815C9.27021 10.3604 9.00379 10.7782 8.61143 10.9946Z" fill="#FFEA94"/>
</svg>
