<svg width="10" height="12" viewBox="0 0 10 12" fill="none" xmlns="http://www.w3.org/2000/svg">
<path d="M0 1C0 0.585787 0.335787 0.25 0.75 0.25H9C9.41421 0.25 9.75 0.585786 9.75 1V8.4375C9.75 8.85171 9.41421 9.1875 9 9.1875H6.5V10.3784C6.5 11.0228 5.74106 11.3672 5.25612 10.9429L3.25 9.1875H0.75C0.335786 9.1875 0 8.85171 0 8.4375V1Z" fill="white"/>
<path fill-rule="evenodd" clip-rule="evenodd" d="M3.8136 7.6875L5 8.7256V7.6875H8.25V1.75H1.5V7.6875H3.8136ZM0.75 0.25C0.335787 0.25 0 0.585787 0 1V8.4375C0 8.85171 0.335786 9.1875 0.75 9.1875H3.25L5.25612 10.9429C5.74106 11.3672 6.5 11.0228 6.5 10.3784V9.1875H9C9.41421 9.1875 9.75 8.85171 9.75 8.4375V1C9.75 0.585786 9.41421 0.25 9 0.25H0.75Z" fill="#7A7A7A"/>
<path fill-rule="evenodd" clip-rule="evenodd" d="M5.98009 4.08817C6.03396 4.14204 6.065 4.21509 6.065 4.29348C6.065 4.40656 6.00031 4.50583 5.90392 4.55435C5.92401 4.59439 5.93457 4.63861 5.93457 4.68478C5.93457 4.798 5.86974 4.89726 5.77335 4.94578C5.80322 5.00526 5.81196 5.07374 5.79696 5.1417C5.76775 5.27382 5.64344 5.36956 5.5014 5.36956H4.30413C4.21857 5.36956 4.08422 5.34256 3.97805 5.29248V3.89447L3.9937 3.88652L4.36935 3.07274V2.63043C4.36935 2.61061 4.37835 2.59183 4.39374 2.57943C4.39384 2.57936 4.39398 2.57926 4.39416 2.57912C4.40228 2.57292 4.49774 2.5 4.63022 2.5C4.78113 2.5 5.02152 2.73882 5.02152 3.02174C5.02152 3.20017 4.95761 3.4223 4.9177 3.54347H5.72339C5.89896 3.54347 6.04831 3.67339 6.06357 3.83917C6.07205 3.93217 6.04101 4.02152 5.98009 4.08817ZM2.93457 4.13043C2.93457 3.9507 3.08092 3.80435 3.26066 3.80435H3.84761V5.434C3.79296 5.47522 3.7254 5.5 3.65196 5.5H3.26066C3.08092 5.5 2.93457 5.35365 2.93457 5.17391V4.13043Z" fill="#F9C41F"/>
</svg>
