<svg width="20" height="20" viewBox="0 0 20 20" fill="none" xmlns="http://www.w3.org/2000/svg">
<path d="M18.3337 10C18.3337 12.2102 17.4557 14.3298 15.8929 15.8926C14.3301 17.4554 12.2105 18.3333 10.0003 18.3333H2.50033L3.11699 14.7C2.38164 13.6224 1.90955 12.3872 1.73874 11.0939C1.56792 9.80053 1.70315 8.48514 2.13353 7.25359C2.56392 6.02204 3.27744 4.90874 4.21665 4.0033C5.15587 3.09787 6.29455 2.42559 7.54103 2.04059C8.78752 1.65558 10.107 1.56861 11.3932 1.78667C12.6794 2.00472 13.8965 2.52172 14.9465 3.29604C15.9964 4.07036 16.8499 5.08037 17.4382 6.24477C18.0265 7.40917 18.3332 8.69543 18.3337 10Z" fill="white"/>
<path d="M13.3337 8.33325H12.5003V10.8333H10.8337V9.16659H9.16699V10.8333H7.50033V8.33325H6.66699L10.0003 5.83325L13.3337 8.33325Z" fill="#F9C41F" fill-opacity="0.2"/>
<path d="M10.0004 19.1666H1.51706L2.24206 14.8833C1.15909 13.1629 0.678725 11.1313 0.876508 9.10808C1.07429 7.08486 1.939 5.18478 3.33464 3.70669C4.73027 2.2286 6.57764 1.25637 8.5862 0.9429C10.5947 0.629434 12.6505 0.992524 14.4302 1.97506C16.2098 2.9576 17.6124 4.50384 18.4173 6.37058C19.2221 8.23732 19.3836 10.3187 18.8764 12.2872C18.3692 14.2558 17.2219 15.9999 15.6152 17.2452C14.0084 18.4905 12.0333 19.1664 10.0004 19.1666ZM3.48372 17.4999H10.0004C11.6897 17.4966 13.3285 16.9231 14.6512 15.8723C15.9739 14.8214 16.9031 13.3548 17.2883 11.7099C17.6734 10.0651 17.492 8.33836 16.7734 6.80949C16.0547 5.28062 14.841 4.03914 13.3287 3.28616C11.8165 2.53319 10.0943 2.31281 8.44118 2.66073C6.78805 3.00865 5.3008 3.90449 4.22034 5.20314C3.13988 6.50178 2.5295 8.12717 2.48806 9.816C2.44663 11.5048 2.97658 13.1582 3.99206 14.5083L3.48372 17.4999Z" fill="#222222"/>
<path d="M14.1663 12.5H5.83301V14.1667H14.1663V12.5Z" fill="#F9C41F"/>
</svg>
