<svg width="20" height="20" viewBox="0 0 20 20" fill="none" xmlns="http://www.w3.org/2000/svg">
<path fill-rule="evenodd" clip-rule="evenodd" d="M2.5 8.51189C2.51407 4.25666 5.88334 0.81884 10.0255 0.833297C14.1676 0.847755 17.514 4.30902 17.5 8.56424V8.6515C17.449 11.4175 15.9456 13.9742 14.1025 15.9723C13.0484 17.0968 11.8712 18.0924 10.5945 18.9391C10.2532 19.2424 9.74679 19.2424 9.40542 18.9391C7.50216 17.6664 5.83174 16.0597 4.47055 14.1923C3.25735 12.5639 2.56854 10.5875 2.5 8.53807L2.5 8.51189Z" fill="white"/>
<path fill-rule="evenodd" clip-rule="evenodd" d="M17.5 8.56424C17.514 4.30902 14.1676 0.847755 10.0255 0.833297C5.88334 0.81884 2.51407 4.25666 2.5 8.51189V8.53807C2.56854 10.5875 3.25735 12.5639 4.47055 14.1923C5.83174 16.0597 7.50216 17.6664 9.40542 18.9391C9.74679 19.2424 10.2532 19.2424 10.5945 18.9391C11.8712 18.0924 13.0484 17.0968 14.1025 15.9723C15.9456 13.9742 17.449 11.4175 17.5 8.6515V8.56424ZM15.8333 8.6352V8.55873C15.8445 5.18126 13.1994 2.51105 10.0196 2.49995C6.84262 2.48887 4.18196 5.13603 4.16669 8.50955C4.22914 10.2132 4.80431 11.8506 5.80706 13.1966L5.81738 13.2106C6.98475 14.812 8.39893 16.2023 10.0015 17.3273C11.0424 16.6034 12.0079 15.7691 12.8819 14.8374C14.5823 12.9925 15.788 10.8186 15.8333 8.6352Z" fill="#222222"/>
<path d="M12.9168 7.98185C12.9168 9.59268 11.611 10.8985 10.0002 10.8985C8.38933 10.8985 7.0835 9.59268 7.0835 7.98185C7.0835 6.37102 8.38933 5.06519 10.0002 5.06519C11.611 5.06519 12.9168 6.37102 12.9168 7.98185Z" fill="#222222"/>
<path fill-rule="evenodd" clip-rule="evenodd" d="M10.0002 9.64852C10.9206 9.64852 11.6668 8.90233 11.6668 7.98185C11.6668 7.06138 10.9206 6.31519 10.0002 6.31519C9.07969 6.31519 8.3335 7.06138 8.3335 7.98185C8.3335 8.90233 9.07969 9.64852 10.0002 9.64852ZM10.0002 10.8985C11.611 10.8985 12.9168 9.59268 12.9168 7.98185C12.9168 6.37102 11.611 5.06519 10.0002 5.06519C8.38933 5.06519 7.0835 6.37102 7.0835 7.98185C7.0835 9.59268 8.38933 10.8985 10.0002 10.8985Z" fill="#F9C41F"/>
</svg>
