<svg width="24" height="24" viewBox="0 0 24 24" fill="none" xmlns="http://www.w3.org/2000/svg">
<g clip-path="url(#clip0_12:2509)">
<path d="M21.7813 5.07323C21.7808 5.06549 21.78 5.05776 21.7787 5.05007C21.7487 5.00722 21.7118 4.97034 21.6809 4.92834C21.4569 4.6231 21.2196 4.32931 20.9693 4.04693C20.9007 3.96976 20.8321 3.89345 20.7618 3.81799C20.5041 3.54194 20.2337 3.27869 19.9507 3.02836C19.8984 2.98204 19.8496 2.93406 19.7973 2.8886C19.1 2.29122 18.3365 1.77568 17.5218 1.35218C17.4892 1.33505 17.4549 1.32048 17.4214 1.3033C17.0586 1.11893 16.6866 0.953195 16.3068 0.806853C16.2211 0.776007 16.143 0.746819 16.0616 0.721098C15.7238 0.599372 15.3808 0.492768 15.0327 0.401285C14.9299 0.373856 14.827 0.345572 14.7224 0.321558C14.3794 0.241831 14.0365 0.180943 13.6858 0.131208C13.5795 0.115785 13.4749 0.0951876 13.3677 0.0823268C12.4644 -0.0274423 11.5513 -0.0274423 10.648 0.0823268C10.5408 0.0951876 10.4363 0.115785 10.3299 0.131208C9.97924 0.180943 9.63285 0.241831 9.2933 0.321558C9.1887 0.345572 9.08581 0.373856 8.98293 0.401285C8.63252 0.492718 8.2896 0.599322 7.95406 0.721098C7.86831 0.750235 7.79029 0.779423 7.70885 0.806853C7.32911 0.953195 6.95705 1.11888 6.59423 1.3033C6.56077 1.32043 6.52651 1.335 6.49391 1.35218C5.67649 1.77523 4.91042 2.29072 4.21066 2.8886C4.15836 2.93401 4.10948 2.98204 4.05718 3.02836C3.77138 3.27985 3.501 3.54309 3.2461 3.81799C3.17582 3.89345 3.10719 3.96976 3.03862 4.04693C2.78768 4.32871 2.55046 4.6225 2.327 4.92829C2.29616 4.97029 2.25928 5.00717 2.22924 5.05002C2.22532 5.0575 2.22185 5.06524 2.21894 5.07318C-0.738345 9.21763 -0.738345 14.7824 2.21894 18.9268C2.22185 18.9348 2.22527 18.9425 2.22924 18.95C2.25923 18.9929 2.29611 19.0297 2.327 19.0717C2.55051 19.377 2.78768 19.6708 3.03862 19.9531C3.10719 20.0303 3.17582 20.1066 3.2461 20.1821C3.50447 20.4581 3.7748 20.7214 4.05718 20.9717C4.10948 21.018 4.15836 21.066 4.21066 21.1115C4.90796 21.7088 5.67147 22.2244 6.48617 22.6479C6.51877 22.665 6.55304 22.6796 6.5865 22.6968C6.94931 22.8811 7.32132 23.0469 7.70112 23.1932C7.78687 23.2241 7.86489 23.2533 7.94633 23.279C8.28412 23.4007 8.6271 23.5073 8.97519 23.5988C9.07808 23.6262 9.18096 23.6545 9.28556 23.6785C9.62853 23.7582 9.97145 23.8191 10.3222 23.8689C10.4285 23.8843 10.5331 23.9049 10.6403 23.9177C11.5435 24.0275 12.4567 24.0275 13.3599 23.9177C13.4671 23.9049 13.5717 23.8843 13.678 23.8689C14.0287 23.8191 14.3751 23.7582 14.7146 23.6785C14.8192 23.6545 14.9221 23.6262 15.025 23.5988C15.376 23.5074 15.7189 23.4008 16.0539 23.279C16.1396 23.2498 16.2176 23.2206 16.2991 23.1932C16.6788 23.0469 17.0509 22.8812 17.4137 22.6968C17.4472 22.6796 17.4814 22.6651 17.514 22.6479C18.3287 22.2243 19.0922 21.7088 19.7895 21.1115C19.8418 21.066 19.8907 21.018 19.943 20.9717C20.2288 20.7208 20.4992 20.4576 20.7541 20.1821C20.8244 20.1066 20.893 20.0303 20.9616 19.9531C21.2125 19.6708 21.4497 19.377 21.6732 19.0717C21.704 19.0297 21.7409 18.9929 21.771 18.95C21.7749 18.9425 21.7783 18.9348 21.7813 18.9268C24.7385 14.7825 24.7385 9.21768 21.7813 5.07323ZM20.803 6.69545C21.623 8.04589 22.1181 9.56829 22.2494 11.1427H17.1136C17.0507 10.1211 16.89 9.10791 16.6335 8.11702C18.0842 7.84534 19.4884 7.36657 20.803 6.69545ZM14.1856 1.94805C14.2337 1.9592 14.2799 1.97463 14.328 1.98578C14.6349 2.05782 14.9393 2.14011 15.2368 2.24299C15.2823 2.25842 15.3268 2.27645 15.3714 2.29273C15.6664 2.39562 15.957 2.50966 16.2417 2.6357C16.2914 2.65886 16.3403 2.68458 16.3901 2.70774C16.6627 2.83751 16.9291 2.97782 17.1891 3.12873L17.3606 3.23247C17.6075 3.38339 17.8476 3.54485 18.0808 3.71691C18.1408 3.76062 18.2008 3.80267 18.26 3.85065C18.4886 4.02211 18.7076 4.20588 18.9168 4.40195C18.9716 4.45169 19.0282 4.50057 19.0822 4.55201C19.3017 4.76035 19.5109 4.98069 19.7133 5.20877C19.739 5.23876 19.7664 5.26619 19.7921 5.29453C18.6312 5.84779 17.4013 6.24286 16.1354 6.46913C15.5489 4.85691 14.7742 3.31954 13.8273 1.88897C13.9464 1.91037 14.0682 1.92238 14.1856 1.94805ZM8.60574 11.1427C8.67336 10.215 8.83131 9.2961 9.07732 8.39906C10.0488 8.51445 11.0262 8.57167 12.0045 8.57052C12.9836 8.57022 13.962 8.51154 14.9342 8.39474C15.1797 9.29324 15.3368 10.2136 15.4031 11.1427H8.60574ZM15.4031 12.8575C15.3355 13.7852 15.1776 14.7041 14.9316 15.6011C13.9601 15.4857 12.9827 15.4285 12.0044 15.4297C11.0253 15.4285 10.047 15.4858 9.07471 15.6011C8.8294 14.704 8.67236 13.7851 8.60569 12.8575H15.4031ZM12.0044 2.27047C12.9801 3.65336 13.7826 5.1507 14.394 6.72891C13.6003 6.81321 12.8026 6.85556 12.0044 6.85581C11.2071 6.85486 10.4103 6.81225 9.61743 6.72806C10.2295 5.1509 11.0311 3.65407 12.0044 2.27047ZM4.29652 5.20787C4.49802 4.97979 4.70806 4.75944 4.92755 4.55111C4.98155 4.49967 5.03817 4.45079 5.09303 4.40105C5.30453 4.20844 5.52347 4.02467 5.74979 3.84974C5.80897 3.80428 5.86895 3.76399 5.92899 3.71601C6.16219 3.54455 6.40227 3.38304 6.64919 3.23157L6.82065 3.12783C7.08073 2.97581 7.34709 2.83545 7.61973 2.70684C7.66947 2.68368 7.71835 2.65796 7.76808 2.6348C8.05273 2.50619 8.3434 2.39215 8.63835 2.29183C8.68291 2.27555 8.7241 2.25751 8.77294 2.24209C9.07044 2.14262 9.37312 2.06033 9.68178 1.98487C9.72981 1.97372 9.77608 1.9583 9.82496 1.948C9.94242 1.92228 10.0642 1.91027 10.1834 1.88882C9.23608 3.31964 8.46111 4.85731 7.87439 6.46983C6.60845 6.24356 5.37853 5.8485 4.21764 5.29523C4.24336 5.26529 4.27079 5.23786 4.29652 5.20787ZM3.20591 6.69545C4.52017 7.36652 5.92406 7.84529 7.37452 8.11702C7.11836 9.10796 6.95785 10.1212 6.89526 11.1427H1.75952C1.89084 9.56829 2.38598 8.04589 3.20591 6.69545ZM3.20591 17.3048C2.38593 15.9543 1.89079 14.4319 1.75952 12.8575H6.89526C6.95815 13.8791 7.11891 14.8923 7.37538 15.8832C5.92467 16.1548 4.52047 16.6336 3.20591 17.3048ZM9.82325 22.0521C9.77523 22.041 9.72896 22.0255 9.68093 22.0144C9.37398 21.9424 9.06959 21.8601 8.77208 21.7572C8.72662 21.7418 8.68206 21.7237 8.63744 21.7074C8.3425 21.6046 8.05188 21.4905 7.76718 21.3645C7.71744 21.3413 7.66856 21.3156 7.61883 21.2924C7.34619 21.1627 7.07983 21.0224 6.81975 20.8714L6.64829 20.7677C6.40137 20.6168 6.16128 20.4553 5.92808 20.2833C5.86805 20.2396 5.80806 20.1975 5.74888 20.1495C5.52025 19.9781 5.30132 19.7943 5.09213 19.5982C5.03727 19.5485 4.98065 19.4996 4.92665 19.4482C4.70716 19.2398 4.49797 19.0195 4.29561 18.7914C4.26989 18.7614 4.24246 18.734 4.21674 18.7056C5.37768 18.1524 6.60754 17.7573 7.87348 17.531C8.45996 19.1433 9.23467 20.6806 10.1815 22.1112C10.0624 22.0899 9.94071 22.0778 9.82325 22.0521ZM12.0044 21.7297C11.0287 20.3469 10.2262 18.8495 9.61487 17.2713C11.2027 17.1004 12.8043 17.1004 14.3922 17.2713L14.3914 17.2722C13.7794 18.8493 12.9778 20.3461 12.0044 21.7297ZM19.7124 18.7923C19.5109 19.0204 19.3008 19.2407 19.0813 19.4491C19.0273 19.5005 18.9707 19.5494 18.9159 19.5991C18.7043 19.7923 18.4854 19.9761 18.2591 20.1504C18.1999 20.1958 18.1399 20.2405 18.0799 20.2842C17.8467 20.4556 17.6066 20.6171 17.3597 20.7686L17.1882 20.8723C16.9287 21.0238 16.6623 21.1641 16.3892 21.2933C16.3394 21.3165 16.2905 21.3422 16.2408 21.3654C15.9562 21.494 15.6655 21.608 15.3705 21.7083C15.326 21.7246 15.2848 21.7427 15.2359 21.7581C14.9384 21.8576 14.6358 21.9398 14.3271 22.0153C14.2791 22.0265 14.2328 22.0419 14.1839 22.0522C14.0665 22.0779 13.9447 22.0899 13.8255 22.1114C14.7724 20.6808 15.5472 19.1434 16.1336 17.5312C17.3995 17.7575 18.6294 18.1525 19.7903 18.7058C19.7655 18.7349 19.7381 18.7623 19.7124 18.7923ZM20.803 17.3048C19.4887 16.6337 18.0848 16.1549 16.6344 15.8832C16.8905 14.8923 17.051 13.8791 17.1136 12.8575H22.2494C22.118 14.4319 21.6229 15.9543 20.803 17.3048Z" fill="#222222"/>
</g>
<defs>
<clipPath id="clip0_12:2509">
<rect width="24" height="24" fill="white"/>
</clipPath>
</defs>
</svg>
