<svg width="28" height="28" viewBox="0 0 28 28" fill="none" xmlns="http://www.w3.org/2000/svg">
<path d="M14 0C6.26882 0 0 6.26787 0 14C0 21.7321 6.26821 28 14 28C21.7324 28 28 21.7321 28 14C28 6.26787 21.7324 0 14 0ZM14 4.18616C16.5582 4.18616 18.6312 6.25987 18.6312 8.81696C18.6312 11.3747 16.5582 13.4477 14 13.4477C11.443 13.4477 9.37003 11.3747 9.37003 8.81696C9.37003 6.25987 11.443 4.18616 14 4.18616ZM13.9969 24.3396C11.4455 24.3396 9.10867 23.4104 7.30625 21.8723C6.86717 21.4978 6.61381 20.9486 6.61381 20.3724C6.61381 17.779 8.71264 15.7035 11.3065 15.7035H16.6947C19.2892 15.7035 21.38 17.779 21.38 20.3724C21.38 20.9493 21.1279 21.4972 20.6882 21.8717C18.8864 23.4104 16.549 24.3396 13.9969 24.3396Z" fill="white"/>
</svg>
