<svg width="13" height="7" viewBox="0 0 13 7" fill="none" xmlns="http://www.w3.org/2000/svg">
<path d="M6.68359 6.70801C6.85449 6.70801 7.02539 6.63965 7.1416 6.50977L12.4326 1.08887C12.5488 0.972656 12.6172 0.822266 12.6172 0.651367C12.6172 0.295898 12.3506 0.0224609 11.9951 0.0224609C11.8242 0.0224609 11.667 0.0908203 11.5508 0.200195L6.68359 5.17676L1.80957 0.200195C1.7002 0.0908203 1.54297 0.0224609 1.36523 0.0224609C1.00977 0.0224609 0.743164 0.295898 0.743164 0.651367C0.743164 0.822266 0.811523 0.972656 0.927734 1.0957L6.21875 6.50977C6.34863 6.63965 6.50586 6.70801 6.68359 6.70801Z" fill="#A7A7A7"/>
</svg>
