<svg width="64" height="64" viewBox="0 0 64 64" fill="none" xmlns="http://www.w3.org/2000/svg">
<path fill-rule="evenodd" clip-rule="evenodd" d="M61.707 10.293L53.707 2.293C53.5195 2.10545 53.2652 2.00006 53 2H23C22.2044 2 21.4413 2.31607 20.8787 2.87868C20.3161 3.44129 20 4.20435 20 5V10.051C17.2689 10.3026 14.73 11.5645 12.8804 13.5896C11.0308 15.6148 10.0036 18.2573 10 21V23C9.20435 23 8.44129 23.3161 7.87868 23.8787C7.31607 24.4413 7 25.2044 7 26C7 26.7956 7.31607 27.5587 7.87868 28.1213C8.44129 28.6839 9.20435 29 10 29C10.0092 29 10.0182 28.9982 10.0271 28.9965L10.0272 28.9964L10.0272 28.9964C10.0347 28.9949 10.0423 28.9935 10.05 28.993C10.2201 30.8414 10.8547 32.6168 11.895 34.1541C12.9353 35.6915 14.3474 36.9408 16 37.786V39H15C11.5522 39 8.24558 40.3696 5.80761 42.8076C3.36964 45.2456 2 48.5522 2 52V61C2 61.2652 2.10536 61.5196 2.29289 61.7071C2.48043 61.8946 2.73478 62 3 62H39C39.2652 62 39.5196 61.8946 39.7071 61.7071C39.8946 61.5196 40 61.2652 40 61V58H59C59.7957 58 60.5587 57.6839 61.1213 57.1213C61.6839 56.5587 62 55.7957 62 55V11C61.9999 10.7348 61.8946 10.4805 61.707 10.293ZM54 5.414L58.586 10H55C54.7348 10 54.4804 9.89464 54.2929 9.70711C54.1054 9.51957 54 9.26522 54 9V5.414ZM21 12C23.3861 12.0026 25.6738 12.9517 27.361 14.639C29.0483 16.3262 29.9974 18.6139 30 21V23.606C28.6404 23.0674 27.5452 22.0188 26.948 20.684C26.8817 20.485 26.7545 20.3118 26.5844 20.1891C26.4142 20.0663 26.2098 20.0002 26 20C25.3734 20.0136 24.7575 20.1649 24.1959 20.4434C23.6344 20.7218 23.1411 21.1204 22.751 21.611C21.9458 20.7771 21.3316 19.778 20.951 18.683C20.8712 18.4444 20.7043 18.2447 20.4838 18.1237C20.2632 18.0026 20.0051 17.9692 19.761 18.03C16.991 18.722 13.88 21.107 12.003 22.73V21C12.0056 18.6144 12.9543 16.3272 14.6409 14.64C16.3275 12.9529 18.6144 12.0034 21 12ZM32 25C32.2652 25 32.5196 25.1054 32.7071 25.2929C32.8946 25.4804 33 25.7348 33 26C33 26.2652 32.8946 26.5196 32.7071 26.7071C32.5196 26.8946 32.2652 27 32 27V25ZM9 26C9 25.7348 9.10536 25.4804 9.29289 25.2929C9.48043 25.1054 9.73478 25 10 25V27C9.73478 27 9.48043 26.8946 9.29289 26.7071C9.10536 26.5196 9 26.2652 9 26ZM12 28V25.425C12.995 24.48 16.42 21.359 19.424 20.225C20.0483 21.7524 21.1447 23.0402 22.553 23.9C22.7896 24.0163 23.0624 24.0351 23.3128 23.9525C23.5631 23.8698 23.7711 23.6923 23.892 23.458C24.2272 22.8434 24.7645 22.3636 25.413 22.1C26.4359 23.8403 28.0717 25.1359 30 25.733V28C30 30.3869 29.0518 32.6761 27.364 34.364C25.6761 36.0518 23.3869 37 21 37C18.6131 37 16.3239 36.0518 14.636 34.364C12.9482 32.6761 12 30.3869 12 28ZM26.379 41L26.816 43.184L23.26 43.776L25.481 41H26.379ZM20.414 48L19.414 47L20.414 46H21.586L22.586 47L21.586 48H20.414ZM21 39C22.0149 38.9975 23.0245 38.8541 24 38.574V39.648L21 43.4L18 39.649V38.574C18.9755 38.8541 19.9851 38.9975 21 39ZM16.519 41L18.74 43.776L15.184 43.184L15.621 41H16.519ZM4 52C3.99411 49.619 4.76667 47.3013 6.2 45.4C7.22846 44.0373 8.55629 42.9291 10.081 42.161C11.1729 41.6137 12.3495 41.255 13.561 41.1L13.02 43.8C12.9938 43.9314 12.9942 44.0667 13.0213 44.1979C13.0484 44.3291 13.1016 44.4535 13.1777 44.5638C13.2538 44.674 13.3513 44.7679 13.4644 44.8397C13.5775 44.9115 13.7039 44.9599 13.836 44.982L17.919 45.663L17.293 46.289C17.1055 46.4765 17.0002 46.7308 17.0002 46.996C17.0002 47.2612 17.1055 47.5155 17.293 47.703L18.915 49.325L17.02 58.8C17.0066 58.8658 16.9999 58.9328 17 59V60H11V50H9V60H4V52ZM19 60V59.1L20.82 50H21.18L23 59.1V60H19ZM38 60H33V50H31V60H25V59C25.0001 58.9328 24.9934 58.8658 24.98 58.8L23.085 49.325L24.707 47.703C24.8945 47.5155 24.9998 47.2612 24.9998 46.996C24.9998 46.7308 24.8945 46.4765 24.707 46.289L24.081 45.663L28.164 44.982C28.2961 44.9599 28.4225 44.9115 28.5356 44.8397C28.6487 44.7679 28.7462 44.674 28.8223 44.5638C28.8984 44.4535 28.9516 44.3291 28.9787 44.1979C29.0058 44.0667 29.0062 43.9314 28.98 43.8L28.439 41.1C29.8891 41.2952 31.2862 41.7756 32.5496 42.5137C33.8131 43.2517 34.9178 44.2327 35.8 45.4C37.2334 47.3013 38.006 49.619 38 52V60ZM59 56H40V52C40.0073 49.186 39.0942 46.4468 37.4 44.2C36.1851 42.5897 34.6141 41.2824 32.8098 40.3803C31.0056 39.4782 29.0172 39.0058 27 39H26V37.786C27.6526 36.9408 29.0647 35.6915 30.105 34.1541C31.1453 32.6168 31.7799 30.8414 31.95 28.993C31.9585 28.993 31.9667 28.9947 31.975 28.9965L31.975 28.9965C31.9832 28.9982 31.9915 29 32 29C32.7956 29 33.5587 28.6839 34.1213 28.1213C34.6839 27.5587 35 26.7956 35 26C35 25.2044 34.6839 24.4413 34.1213 23.8787C33.5587 23.3161 32.7956 23 32 23V21C31.9964 18.2573 30.9692 15.6148 29.1196 13.5896C27.27 11.5645 24.7311 10.3026 22 10.051V5C22 4.73478 22.1054 4.48043 22.2929 4.29289C22.4804 4.10536 22.7348 4 23 4H52V9C52 9.79565 52.3161 10.5587 52.8787 11.1213C53.4413 11.6839 54.2043 12 55 12H60V55C60 55.2652 59.8946 55.5196 59.7071 55.7071C59.5196 55.8946 59.2652 56 59 56ZM15 25H17V27H15V25ZM23 30H25C25 31.0609 24.5786 32.0783 23.8284 32.8284C23.0783 33.5786 22.0609 34 21 34C19.9391 34 18.9217 33.5786 18.1716 32.8284C17.4214 32.0783 17 31.0609 17 30H19C19 30.5304 19.2107 31.0391 19.5858 31.4142C19.9609 31.7893 20.4696 32 21 32C21.5304 32 22.0391 31.7893 22.4142 31.4142C22.7893 31.0391 23 30.5304 23 30ZM49 27H47C46.7348 27 46.4804 27.1054 46.2929 27.2929C46.1054 27.4804 46 27.7348 46 28C46 28.2652 46.1054 28.5196 46.2929 28.7071C46.4804 28.8946 46.7348 29 47 29H49C49.7957 29 50.5587 29.3161 51.1213 29.8787C51.6839 30.4413 52 31.2044 52 32C52 32.7956 51.6839 33.5587 51.1213 34.1213C50.5587 34.6839 49.7957 35 49 35V36H47V35C46.2043 35 45.4413 34.6839 44.8787 34.1213C44.3161 33.5587 44 32.7956 44 32H46C46 32.2652 46.1054 32.5196 46.2929 32.7071C46.4804 32.8946 46.7348 33 47 33H49C49.2652 33 49.5196 32.8946 49.7071 32.7071C49.8946 32.5196 50 32.2652 50 32C50 31.7348 49.8946 31.4804 49.7071 31.2929C49.5196 31.1054 49.2652 31 49 31H47C46.2043 31 45.4413 30.6839 44.8787 30.1213C44.3161 29.5587 44 28.7956 44 28C44 27.2044 44.3161 26.4413 44.8787 25.8787C45.4413 25.3161 46.2043 25 47 25V24H49V25C49.7957 25 50.5587 25.3161 51.1213 25.8787C51.6839 26.4413 52 27.2044 52 28H50C50 27.7348 49.8946 27.4804 49.7071 27.2929C49.5196 27.1054 49.2652 27 49 27ZM37 12H47V14H37V12ZM39 8H37V10H39V8ZM41 8H47V10H41V8ZM41.9138 22.0622C43.6601 20.7234 45.7996 19.9985 48 20C50.2005 19.9985 52.3399 20.7234 54.0862 22.0622C55.8326 23.401 57.0881 25.2788 57.658 27.4042C58.2279 29.5295 58.0803 31.7836 57.238 33.8165C56.3958 35.8494 54.906 37.5474 53 38.647V46C53 46.2652 52.8947 46.5196 52.7071 46.7071C52.5196 46.8946 52.2652 47 52 47C51.7836 47.0005 51.5729 46.9303 51.4 46.8L48 44.25L44.6 46.8C44.4514 46.9114 44.2748 46.9793 44.0898 46.9959C43.9049 47.0126 43.7189 46.9775 43.5528 46.8944C43.3867 46.8114 43.247 46.6837 43.1494 46.5257C43.0517 46.3677 43 46.1857 43 46V38.647C41.094 37.5474 39.6042 35.8494 38.762 33.8165C37.9198 31.7836 37.7721 29.5295 38.342 27.4042C38.9119 25.2788 40.1675 23.401 41.9138 22.0622ZM48.6 42.2L51 44V39.539C49.0472 40.1537 46.9528 40.1537 45 39.539V44L47.4 42.2C47.5731 42.0702 47.7836 42 48 42C48.2164 42 48.4269 42.0702 48.6 42.2ZM25 25H27V27H25V25ZM43.5555 36.6517C44.871 37.5308 46.4178 38 48 38C50.121 37.9976 52.1545 37.154 53.6542 35.6542C55.154 34.1544 55.9976 32.121 56 30C56 28.4177 55.5308 26.871 54.6518 25.5554C53.7727 24.2398 52.5233 23.2145 51.0615 22.609C49.5997 22.0035 47.9911 21.845 46.4393 22.1537C44.8874 22.4624 43.462 23.2243 42.3432 24.3431C41.2243 25.462 40.4624 26.8874 40.1537 28.4393C39.845 29.9911 40.0035 31.5997 40.609 33.0615C41.2145 34.5233 42.2399 35.7727 43.5555 36.6517Z" fill="url(#paint0_linear_1:7395)"/>
<defs>
<linearGradient id="paint0_linear_1:7395" x1="2.75" y1="62" x2="2" y2="2" gradientUnits="userSpaceOnUse">
<stop stop-color="#FC501A"/>
<stop offset="1" stop-color="#F9C31F"/>
</linearGradient>
</defs>
</svg>
