<svg width="64" height="64" viewBox="0 0 64 64" fill="none" xmlns="http://www.w3.org/2000/svg">
<path fill-rule="evenodd" clip-rule="evenodd" d="M55 62C55.2652 62 55.5196 61.8946 55.7071 61.7071C55.8946 61.5196 56 61.2652 56 61V13C55.9999 12.7348 55.8946 12.4805 55.707 12.293L45.707 2.293C45.5195 2.10545 45.2652 2.00006 45 2H9C8.73478 2 8.48043 2.10536 8.29289 2.29289C8.10536 2.48043 8 2.73478 8 3V61C8 61.2652 8.10536 61.5196 8.29289 61.7071C8.48043 61.8946 8.73478 62 9 62H55ZM46 5.414L52.586 12H46V5.414ZM10 4H44V13C44 13.2652 44.1054 13.5196 44.2929 13.7071C44.4804 13.8946 44.7348 14 45 14H54V60H10V4ZM24 6H12V16H24V6ZM22 14H14V8H22V14ZM34 6H26V8H34V6ZM36 6H42V8H36V6ZM30 10H26V12H30V10ZM32 10H42V12H32V10ZM34 16V14H26V16H34ZM36 14H42V16H36V14ZM16 34.9998C15.7349 34.9998 15.4806 34.8945 15.293 34.707L12.293 31.707C12.1056 31.5195 12.0002 31.2652 12.0002 31C12.0002 30.7349 12.1056 30.4806 12.293 30.293L24.293 18.293C24.4806 18.1056 24.7349 18.0002 25 18.0002C25.2652 18.0002 25.5195 18.1056 25.707 18.293L37.707 30.293C37.8945 30.4806 37.9998 30.7349 37.9998 31C37.9998 31.2652 37.8945 31.5195 37.707 31.707L34.707 34.707C34.5195 34.8945 34.2652 34.9998 34 34.9998C33.7349 34.9998 33.4806 34.8945 33.293 34.707L33 34.414V41C33 41.2652 32.8947 41.5196 32.7071 41.7071C32.5196 41.8947 32.2652 42 32 42H18C17.7348 42 17.4805 41.8947 17.2929 41.7071C17.1054 41.5196 17 41.2652 17 41V34.414L16.707 34.707C16.5195 34.8945 16.2652 34.9998 16 34.9998ZM23 36V40H27V36C27 35.4696 26.7893 34.9609 26.4142 34.5858C26.0392 34.2107 25.5305 34 25 34C24.4696 34 23.9609 34.2107 23.5858 34.5858C23.2107 34.9609 23 35.4696 23 36ZM29 40H31V32.414L25 26.414L19 32.414V40H21V36C21 34.9392 21.4215 33.9217 22.1716 33.1716C22.9218 32.4215 23.9392 32 25 32C26.0609 32 27.0783 32.4215 27.8285 33.1716C28.5786 33.9217 29 34.9392 29 36V40ZM35.586 31L25 20.414L14.414 31L16 32.586L24.293 24.293C24.4806 24.1056 24.7349 24.0002 25 24.0002C25.2652 24.0002 25.5195 24.1056 25.707 24.293L34 32.586L35.586 31ZM38.0339 21.7431C37.9879 21.9158 37.9891 22.0978 38.0372 22.27C38.0854 22.4422 38.1789 22.5983 38.3079 22.7221L40.8929 25.2001L40.0279 28.7651C39.9818 28.9507 39.9899 29.1456 40.0512 29.3268C40.1125 29.508 40.2244 29.6678 40.3738 29.7872C40.5231 29.9067 40.7036 29.9808 40.8938 30.0008C41.084 30.0208 41.276 29.9859 41.4469 29.9001L44.9999 28.1181L48.5529 29.9001C48.7235 29.9854 48.915 30.0202 49.1047 30.0003C49.2944 29.9804 49.4745 29.9066 49.6236 29.7877C49.7728 29.6688 49.8849 29.5098 49.9466 29.3293C50.0083 29.1488 50.0171 28.9544 49.972 28.7691L49.1069 25.2001L51.692 22.7231C51.821 22.5994 51.9145 22.4434 51.9628 22.2713C52.0111 22.0993 52.0124 21.9174 51.9666 21.7446C51.9207 21.5719 51.8294 21.4146 51.7022 21.2891C51.5749 21.1636 51.4163 21.0745 51.243 21.0311L47.6889 20.1431L45.8999 16.5531C45.8075 16.3981 45.6765 16.2698 45.5196 16.1806C45.3627 16.0915 45.1854 16.0447 45.0049 16.0447C44.8245 16.0447 44.6472 16.0915 44.4903 16.1806C44.3334 16.2698 44.2023 16.3981 44.1099 16.5531L42.3159 20.1421L38.7619 21.0301C38.5878 21.0728 38.4284 21.1614 38.3003 21.2869C38.1722 21.4123 38.0802 21.5699 38.0339 21.7431ZM43.2429 21.9701C43.3829 21.9351 43.5137 21.8702 43.6262 21.78C43.7388 21.6897 43.8304 21.5761 43.8949 21.4471L44.9999 19.2361L46.0999 21.4471C46.1645 21.5761 46.2561 21.6897 46.3687 21.78C46.4812 21.8702 46.612 21.9351 46.7519 21.9701L48.9999 22.5311L47.3079 24.1531C47.1815 24.2742 47.089 24.4265 47.0399 24.5946C46.9907 24.7628 46.9866 24.9409 47.0279 25.1111L47.5209 27.1421L45.4469 26.1051C45.3081 26.0357 45.1551 25.9996 44.9999 25.9996C44.8448 25.9996 44.6917 26.0357 44.5529 26.1051L42.4789 27.1421L42.9719 25.1111C43.0133 24.9409 43.0091 24.7628 42.96 24.5946C42.9109 24.4265 42.8184 24.2742 42.6919 24.1531L40.9999 22.5311L43.2429 21.9701ZM39.5554 34.3482C40.871 33.4692 42.4178 33 44 33C46.121 33.0024 48.1545 33.846 49.6542 35.3458C51.154 36.8456 51.9976 38.879 52 41C52 42.5822 51.5308 44.129 50.6518 45.4446C49.7727 46.7602 48.5233 47.7855 47.0615 48.391C45.5997 48.9965 43.9911 49.155 42.4393 48.8463C40.8874 48.5376 39.462 47.7757 38.3432 46.6569C37.2243 45.538 36.4624 44.1126 36.1537 42.5607C35.845 41.0089 36.0035 39.4003 36.609 37.9385C37.2145 36.4767 38.2398 35.2273 39.5554 34.3482ZM40.6666 45.9888C41.6533 46.6481 42.8133 47 44 47C45.5908 46.9984 47.116 46.3658 48.2409 45.2409C49.3658 44.116 49.9984 42.5908 50 41C50 39.8133 49.6481 38.6533 48.9888 37.6666C48.3295 36.6799 47.3925 35.9108 46.2961 35.4567C45.1997 35.0026 43.9933 34.8838 42.8295 35.1153C41.6656 35.3468 40.5965 35.9182 39.7574 36.7574C38.9182 37.5965 38.3468 38.6656 38.1153 39.8295C37.8838 40.9933 38.0026 42.1997 38.4567 43.2961C38.9109 44.3925 39.6799 45.3295 40.6666 45.9888ZM43 42.586L40.707 40.293L39.293 41.707L42.293 44.707C42.4805 44.8944 42.7348 44.9998 43 44.9998C43.2651 44.9998 43.5194 44.8944 43.707 44.707L48.707 39.707L47.293 38.293L43 42.586ZM22 51H12V53H22V51ZM12 55H18V57H12V55ZM52 53V51H40V53H52ZM44 55H52V57H44V55ZM38 51H24V53H38V51ZM20 55H42V57H20V55ZM35 47H12V49H35V47Z" fill="url(#paint0_linear_1:7368)"/>
<defs>
<linearGradient id="paint0_linear_1:7368" x1="8.6" y1="62" x2="7.66258" y2="2.00527" gradientUnits="userSpaceOnUse">
<stop stop-color="#FC501A"/>
<stop offset="1" stop-color="#F9C31F"/>
</linearGradient>
</defs>
</svg>
